<svg id="Layer_1" data-name="Layer 1" xmlns="http://www.w3.org/2000/svg" viewBox="0 0 324.03 195.18"><defs><style>.cls-1{fill:#fff;}</style></defs><title>Artboard 2</title><path class="cls-1" d="M322.47,7.73c-9.4-16.29-59.4-6-121.6,22.67a81.89,81.89,0,0,1,9,8C257.58,18.24,294.57,11.95,302.09,25,311,40.37,276,77.84,220.42,115.27l.63.67C289.19,71.6,333,26,322.47,7.73Z"/><path class="cls-1" d="M28.11,183.17c-5.49-9.51,5.78-27.45,28.28-48.59h0q-2.7-1-5.3-2l-.3-.12c-1.77-.72-3.51-1.46-5.2-2.24h0C18.52,155.11,4.8,176.35,11.21,187.45c7.51,13,40.92,9,85.77-7.68l-.51-.73C60.61,191.53,34.32,193.94,28.11,183.17Z"/><path class="cls-1" d="M0,74.14C0,35.58,50.54,4.32,112.9,4.32s112.9,31.26,112.9,69.82S175.25,144,112.9,144,0,112.7,0,74.14ZM64,19.82,85.2,92.55h.11l22.62-82.1A125.1,125.1,0,0,0,64,19.82Zm42.76,30.12L95.09,92.55h23.54Zm33.42,42.61,20.18-73.32a126.22,126.22,0,0,0-44.26-8.82l24,82.14Zm-76.59,0L51.91,49.94,40.25,92.55Zm133.86,8.57a47.48,47.48,0,0,0,8.75-27c0-18.66-11.72-35.44-30.4-47.11Zm-24-8.57L161.59,49.94,150,92.55Zm2.38,8.54H147.68l-2.45,9,6.44,22A101.1,101.1,0,0,0,180.58,118Zm-101.44,31-8.49-31h-28l-2.38,8.71c9.61,9.73,23.06,17.53,38.84,22.43Zm46.6-31H92.75l-9.2,33.6a133,133,0,0,0,29.34,3.24,136.2,136.2,0,0,0,18.05-1.2ZM48.19,28.21C30.58,39.81,19.6,56.1,19.6,74.14a47.41,47.41,0,0,0,8.58,26.72Z"/></svg>