<svg id="Layer_1" data-name="Layer 1" xmlns="http://www.w3.org/2000/svg" viewBox="0 0 163.65 53.06"><defs><style>.cls-1,.cls-2,.cls-7{fill:#fff;}.cls-2{font-size:44px;}.cls-2,.cls-7{font-family:Montserrat-Medium, Montserrat;}.cls-3{letter-spacing:-0.02em;}.cls-4{letter-spacing:-0.03em;}.cls-5{letter-spacing:-0.02em;}.cls-6{letter-spacing:-0.02em;}.cls-7{font-size:12px;letter-spacing:-0.02em;}.cls-8{letter-spacing:-0.03em;}.cls-9{letter-spacing:-0.03em;}.cls-10{letter-spacing:-0.04em;}.cls-11{letter-spacing:-0.02em;}.cls-12{letter-spacing:-0.03em;}.cls-13{letter-spacing:-0.03em;}.cls-14{letter-spacing:-0.02em;}.cls-15{letter-spacing:-0.01em;}.cls-16{letter-spacing:-0.02em;}.cls-17{letter-spacing:-0.03em;}.cls-18{letter-spacing:-0.02em;}.cls-19{letter-spacing:-0.03em;}.cls-20{letter-spacing:-0.01em;}</style></defs><title>OrbitWhiteArtboard 8</title><path class="cls-1" d="M18.6,31.48A9.65,9.65,0,0,0,24,33.35c6.38.59,16.62-1.67,29-6.27l-.21-.3C38,31.93,27.11,32.93,24.55,28.48c-1.39-2.4-.18-6.11,3.1-10.64a69.42,69.42,0,0,1,8.58-9.43Q35.11,8,34,7.59L33,7.14l-1.19-.53q-3.06,2.82-5.56,5.47C18.8,20,15.41,26.5,17.57,30.25A4.71,4.71,0,0,0,18.6,31.48Z"/><path class="cls-1" d="M50.2,7.74C46.32,1,25.68,5.28,0,17.1a3.41,3.41,0,0,1,.34.25A78.61,78.61,0,0,1,27.27,11c7.52-.26,13,1.2,14.52,3.89C45.46,21.21,31,36.68,8.07,52.14l.26.28C36.46,34.11,54.55,15.27,50.2,7.74Z"/><text class="cls-2" transform="translate(60.91 37.4)"><tspan class="cls-3">o</tspan><tspan class="cls-4" x="27.06" y="0">r</tspan><tspan class="cls-5" x="43.7" y="0">b</tspan><tspan class="cls-6" x="72.75" y="0">i</tspan><tspan x="84.02" y="0">t</tspan></text><text class="cls-7" transform="translate(63.48 49.9)">M<tspan class="cls-8" x="11.21" y="0">a</tspan><tspan class="cls-9" x="18.06" y="0">r</tspan><tspan class="cls-10" x="22.62" y="0">k</tspan><tspan class="cls-11" x="29.54" y="0">e</tspan><tspan class="cls-12" x="36.59" y="0">t</tspan><tspan class="cls-13" x="41.24" y="0">i</tspan><tspan class="cls-14" x="44.25" y="0">n</tspan><tspan class="cls-15" x="52.17" y="0">g </tspan><tspan class="cls-16" x="63.44" y="0">G</tspan><tspan class="cls-17" x="72.4" y="0">r</tspan><tspan class="cls-18" x="76.94" y="0">o</tspan><tspan class="cls-19" x="84.31" y="0">u</tspan><tspan class="cls-20" x="92.1" y="0">p</tspan></text></svg>